<?xml version="1.0" encoding="utf-8"?>
<svg viewBox="0 0 145.88 173.85" xmlns="http://www.w3.org/2000/svg">
  <defs>
    <style>.cls-1 {
  fill: #262626;
}

</style>
  </defs>
  <title>Asset 1</title>
  <g id="Layer_2" data-name="Layer 2">
    <g id="OBJECTS">
      <path class="cls-1" d="M99.49,159.38c-2.91-.14-3.14,1.66-.42,3.31,2.29,1.41,2.47,1.45,3.89.9C105.37,162.67,102.78,159.53,99.49,159.38Z"></path>
      <path class="cls-1" d="M66.76,119.56c-4.3-9.51-4.79-10.32-5.85-9.66s-.79,3,1.9,12c3.27,10.95,4.67,13.71,9.81,19.26,2.28,2.47,5.5,6,7.13,7.75a21.79,21.79,0,0,0,5.63,4.45c5.69,2.6,5.54,1.46-.64-4.8C78.87,142.62,72.65,132.59,66.76,119.56Z" style="fill: #998f00"></path>
      <path class="cls-1" d="M92,62.75c-1.7,3.6-2.93,6.91-2.76,7.38a1.64,1.64,0,0,0,1.72.66c1.12-.16,2.15-1.9,5.37-9,5.43-11.89,5.85-13.36,5.86-20.36,0-6.65-1.55-11.8-3.61-11.8-.92,0-1,.59-.74,4.82a61.94,61.94,0,0,1-1.78,18.28A88.65,88.65,0,0,1,92,62.75Z" style="fill: #665f00"></path>
      <path class="cls-1" d="M80.87,80.77C79.2,82,78.63,83.48,79.21,85s3.31,1.08,4.41-.49C85.87,81.27,83.87,78.54,80.87,80.77Z" style="fill: #998f00"></path>
      <path class="cls-1" d="M26.81,105.78c4.61,2.39,8.62,2.51,8.94.29.17-1.16-.61-1.75-5.15-3.92a53.9,53.9,0,0,1-8.84-5.39c-5-4.08-6.94-2.93-3.54,2.1C20.3,101.94,21.92,103.24,26.81,105.78Z" style="fill: #998f00"></path>
      <path class="cls-1" d="M133.09,131.18c.15,3.77.44,7.56.62,8.43l.33,1.56,1.45-1.69c1.57-1.83,2.81-6.52,2.81-10.64,0-8-6.76-22.07-9.36-19.47-.45.45,0,2.83,1.61,7.79A43.74,43.74,0,0,1,133.09,131.18Z" style="fill: #a39800"></path>
      <path class="cls-1" d="M12.21,106.78c7.94,8.4,13.84,10.57,27.72,10.24l9-.22.41,2.19a62.51,62.51,0,0,0,2.45,7.52c9.66,25,27,41.75,48.2,46.46,6.61,1.48,20,1,24.81-.85,12.54-4.87,21.12-20.89,21.1-39.39,0-9.84-2.08-16.82-9.51-32.2-5.48-11.31-11.75-19-24.11-29.66L109,68.07l2.14-5.3c6.35-15.84,5-35.8-3.21-47.92C103,7.6,98.59,4.49,88.94,1.46,84.84.17,83,0,74,0H63.66L53.79,4A171.6,171.6,0,0,0,36.71,12.1c-6.53,3.7-7.95,4.86-15,12.22C12.82,33.51,8.68,39,5.19,46.23,1,54.82.08,59.58,0,72.14,0,81.81.12,83.65,1.39,88A42.79,42.79,0,0,0,12.21,106.78ZM46.66,90.34c-.41,5-.19,4.86-7.88,3.32C30.38,92,26.19,88.56,23.34,81c-1.11-2.93-1.29-4.55-1.1-9.51.22-5.62.41-6.34,3.14-12,7.17-14.81,16.53-24.31,30.6-31,11.87-5.71,21.56-5.32,28.16,1.11,4.27,4.16,5.4,12.74,2.91,22-1.75,6.5-1.66,6.41-5,5.26-6.55-2.29-16.6,1-23.29,7.54C52.41,70.58,47.43,81.28,46.66,90.34Zm69.11-10.93c11.62,11.18,14.92,16.45,21.88,34.93a86.59,86.59,0,0,1,3.07,9.56c1,4.72.87,15-.28,20.27-2.27,10.26-9.29,20.65-15.87,23.49a36.08,36.08,0,0,1-7.66,1.93c-5.86.76-7.11.68-15.29-1a53.39,53.39,0,0,1-17.38-6.87c-5.5-3.59-15.13-13.52-19.31-19.92-9-13.84-14.18-30.21-14.25-45.34s7.83-29.39,19.42-35.1c3.23-1.59,8.46-1.86,11.53-.61l1.73.71-2,3.6C77.65,71.8,74,77.05,72.79,77.44c-1.74.55-5.54,6.42-6.27,9.7-1.71,7.55-.3,19.69,3.41,29.43C75,130,81.39,140,88.41,145.72c10.58,8.67,20.27,10.65,29.64,6.08,4.36-2.14,8.94-6.29,10.34-9.36,2.2-4.84,1.08-16.37-2.61-27-4.64-13.28-10.51-22.39-19.28-29.87-2.79-2.38-5-4.53-4.91-4.78.57-1.5,5.25-9.28,5.58-9.3S111.28,75.07,115.77,79.41ZM73.11,108.06C81.68,103,90,95.75,95.21,88.84a13.78,13.78,0,0,1,2.59-2.93c1.24-.06,12,9.87,15.52,14.25a58.4,58.4,0,0,1,10.11,17.59c1.85,4.88,2,5.9,2,12.8,0,6.52-.15,7.83-1.33,10a26.84,26.84,0,0,1-9,8.78,20.05,20.05,0,0,1-7.1,1.35c-4.75.24-5.22.15-9.51-2-10-5.05-18.77-17.39-24.61-34.61C72.2,109.12,72.14,108.64,73.11,108.06ZM13.37,42.56c3.49-5.35,12.94-16.51,17-20.1C35.73,17.75,55.68,7.93,64.6,5.62c5-1.3,17.19-1.19,22.53.22a34.11,34.11,0,0,1,13.34,7.3c3,3,7.64,12.9,8.85,19,1.49,7.58,1,17.4-1.27,24.09-4.87,14.45-16.56,31.15-29.4,42A81.68,81.68,0,0,1,71.33,104c-1.59,0-1.78-10.54-.29-15.61a32.66,32.66,0,0,1,4.16-7.81C91,58.65,95.47,45,90.91,32.8a16.86,16.86,0,0,0-9.3-10.13c-3.92-1.93-4.58-2.05-10.75-2.05-7.38,0-10.22.74-18.44,4.82C37.59,32.8,29,41.15,21.56,55.29,17.78,62.52,16.5,67.1,16.5,73.47c0,11.38,6,20.77,15.17,23.89a56.35,56.35,0,0,0,8.82,1.73l5.86.72.4,4.44c.23,2.44.57,5.36.77,6.46l.35,2-6.78-.06c-11.47-.09-18.37-2.65-24.88-9.23A35.53,35.53,0,0,1,8.3,92.53C1.12,78.57,3.18,58.16,13.37,42.56Z" style="fill: #fff461"></path>
    </g>
  </g>
</svg>