<svg xmlns="http://www.w3.org/2000/svg" viewBox="0 0 145.9 173.8">
  <path d="M99.5 159.4c-3-.2-3.2 1.6-.4 3.3 2.3 1.4 2.4 1.4 3.9.9 2.4-1-.2-4-3.5-4.2Z" class="ring-dots ring-dots-1"/>
  <path d="M80.9 80.8c-1.7 1.2-2.3 2.7-1.7 4.2.6 1.5 3.3 1 4.4-.5 2.3-3.2.3-6-2.7-3.7Z" class="ring-dots ring-dots-2"/>
  <path d="M66.8 119.6c-4.3-9.5-4.8-10.4-5.9-9.7-1 .7-.8 3 2 12 3.2 11 4.6 13.7 9.7 19.3l7.2 7.7c1.6 1.8 3.5 3.3 5.6 4.5 5.7 2.6 5.5 1.4-.7-4.8-5.8-6-12-16-18-29Z" class="ring-dashes ring-dashes-1"/>
  <path d="M92 62.8a28 28 0 0 0-2.8 7.3c.4.6 1.1.8 1.8.7 1-.2 2.1-2 5.3-9 5.5-11.9 5.9-13.4 5.9-20.4 0-6.6-1.6-11.8-3.6-11.8-1 0-1 .6-.8 4.9a62 62 0 0 1-1.7 18.2 88.6 88.6 0 0 1-4.1 10Z" class="ring-dashes ring-dashes-2"/>
  <path d="M26.8 105.8c4.6 2.4 8.6 2.5 9 .3.1-1.2-.7-1.8-5.2-4a54 54 0 0 1-8.8-5.3c-5-4.1-7-3-3.6 2 2.1 3.1 3.7 4.4 8.6 7Z" class="ring-dashes ring-dashes-3"/>
  <path d="M133 131.2c.2 3.8.5 7.5.7 8.4l.3 1.6 1.5-1.7c1.6-1.8 2.8-6.5 2.8-10.7 0-8-6.8-22-9.4-19.4-.4.4 0 2.8 1.7 7.8 1.6 4.5 2.4 9.2 2.5 14Z" class="ring-dashes ring-dashes-4"/>
  <path d="M12.2 106.8c8 8.4 13.9 10.5 27.7 10.2l9-.2.4 2.2c.7 2.5 1.5 5 2.5 7.5 9.7 25 27 41.8 48.2 46.5a61 61 0 0 0 24.8-.9c12.5-4.8 21.1-20.9 21.1-39.4 0-9.8-2-16.8-9.5-32.2A85.3 85.3 0 0 0 112.3 71l-3.3-3 2.1-5.3c6.4-15.9 5-35.8-3.2-48C103 7.7 98.6 4.6 89 1.6 85 .2 83 0 74 0H63.7l-10 4c-5.7 2.4-11.5 5-17 8.1-6.5 3.7-8 4.9-15 12.2a79.4 79.4 0 0 0-16.5 22A49 49 0 0 0 0 72a42.8 42.8 0 0 0 12.2 34.6Zm34.5-16.5c-.5 5-.2 4.9-8 3.4C30.5 92 26.3 88.6 23.4 81a20 20 0 0 1-1-9.5c.2-5.6.3-6.3 3-12a61.6 61.6 0 0 1 30.7-31c11.8-5.7 21.5-5.3 28.1 1.1 4.3 4.2 5.4 12.7 3 22-1.8 6.5-1.7 6.4-5 5.3-6.6-2.3-16.6 1-23.3 7.5a44.7 44.7 0 0 0-12.1 26Zm69-10.9c11.7 11.2 15 16.5 22 35a75 75 0 0 1 3 9.5c1 4.7.9 15-.3 20.3-2.2 10.2-9.3 20.6-15.8 23.5a36 36 0 0 1-23 .9c-6.1-1.3-12-3.6-17.4-6.9A88.8 88.8 0 0 1 65 141.8a86.2 86.2 0 0 1-14.2-45.3c0-15.2 7.8-29.4 19.4-35.1 3.2-1.6 8.5-1.9 11.5-.6l1.8.7-2 3.6c-3.8 6.7-7.4 12-8.6 12.3-1.8.6-5.5 6.5-6.3 9.7a57.7 57.7 0 0 0 3.4 29.5 68.9 68.9 0 0 0 18.5 29.1c10.6 8.7 20.3 10.7 29.6 6.1 4.4-2.1 9-6.3 10.4-9.4 2.2-4.8 1-16.3-2.6-27a64.7 64.7 0 0 0-19.3-29.8c-2.8-2.4-5-4.6-5-4.8a70 70 0 0 1 5.7-9.3c.3 0 4 3.6 8.6 8Zm-42.6 28.7a80 80 0 0 0 22.1-19.3c.7-1 1.6-2 2.6-2.9 1.2 0 12 9.9 15.5 14.3a58.4 58.4 0 0 1 10.1 17.5c1.9 5 2 6 2 12.9 0 6.5-.1 7.8-1.3 10a26.8 26.8 0 0 1-9 8.7 20 20 0 0 1-7.1 1.4c-4.8.2-5.2.1-9.5-2-10-5-18.8-17.4-24.6-34.6-1.7-5-1.8-5.5-.8-6ZM13.4 42.6c3.5-5.4 13-16.6 17-20.1A127 127 0 0 1 64.6 5.6a63 63 0 0 1 22.5.2c5 1.4 9.5 4 13.4 7.3 3 3 7.6 13 8.8 19 1.5 7.6 1 17.4-1.3 24.1A103.5 103.5 0 0 1 71.3 104c-1.6 0-1.8-10.5-.3-15.6 1-2.8 2.5-5.4 4.2-7.8C91 58.6 95.5 45 90.9 32.8a16.9 16.9 0 0 0-9.3-10.1c-4-2-4.6-2-10.7-2a33 33 0 0 0-18.5 4.7 63.2 63.2 0 0 0-30.8 29.9 35 35 0 0 0-5.1 18.2c0 11.3 6 20.7 15.2 23.9 2.9.8 5.8 1.3 8.8 1.7l5.9.7.4 4.5.7 6.4.4 2H41c-11.5-.1-18.4-2.7-24.9-9.3-3.3-3-6-6.8-7.9-10.9-7.2-14-5.1-34.3 5-50Z" class="ring-circle"/>
</svg>
