<?xml version="1.0" encoding="UTF-8" standalone="no"?><!DOCTYPE svg PUBLIC "-//W3C//DTD SVG 1.1//EN" "http://www.w3.org/Graphics/SVG/1.1/DTD/svg11.dtd"><svg width="100%" height="100%" viewBox="0 0 852 902" version="1.1" xmlns="http://www.w3.org/2000/svg" xmlns:xlink="http://www.w3.org/1999/xlink" xml:space="preserve" xmlns:serif="http://www.serif.com/" style="fill-rule:evenodd;clip-rule:evenodd;stroke-linejoin:round;stroke-miterlimit:2;"><path id="std-stroke" d="M609.375,13.25c-49,-14.125 -157.25,-17.792 -202.792,-6.917c-18.041,4.334 -56.583,12.875 -85.75,19.042c-79.166,16.667 -130.958,43.208 -180.666,92.667c-61,60.625 -100.5,133.75 -127.667,236.125c-10.833,40.25 -12.25,54.75 -12.5,125c0,71.416 1.042,84.083 11.958,124.291c22.667,83.334 75.417,169.625 132,215.417c50.875,41.208 119.792,69.5 192.25,78.958c122.667,16.084 255.375,-16.666 347.625,-86.166c79.167,-59.5 135.125,-163.75 158.584,-295.084c12.5,-70.833 11.625,-201.416 -1.959,-256.166c-31.708,-128.167 -110.416,-212.375 -231.083,-247.167Zm205.292,508.333c-31.042,160.084 -96.5,255.875 -211.667,309.875c-25.715,11.796 -52.258,21.698 -79.417,29.625c-27.291,7.292 -55.208,10.417 -102.958,11.625c-74.625,1.917 -103.625,-1.625 -155.375,-18.958c-47.75,-16 -79.833,-34.75 -114.417,-66.667c-134.708,-124.958 -168.625,-353.75 -79.583,-537.083c57.125,-117.667 135.083,-177.125 263.625,-201.208c21.417,-4.167 53.667,-11.375 71.708,-16.334c37.25,-10.291 81,-11.791 137.5,-4.666c144.125,18.041 235.5,98.625 270.417,238.5c11.917,48.333 12.125,193.5 0.167,255.125l-0,0.166Z" style="fill:#262626;fill-rule:nonzero;"/><g id="std-sparkles"><path d="M774.5,458.333c-9.975,0.2 -15.987,11.125 -10.829,19.659c0.358,0.591 0.758,1.15 1.204,1.675c7.458,8.958 18.5,2.875 18.5,-10.167c-0.042,-7.958 -2.625,-11.167 -8.875,-11.167Z" style="fill:#262626;fill-rule:nonzero;"/><path d="M94.417,519.875c-11.125,1.542 -16.667,16.208 -11.209,30.25c5.459,14.042 19.042,4.833 20.584,-13.958c1.375,-16.292 0.375,-17.709 -9.375,-16.292Z" style="fill:#262626;fill-rule:nonzero;"/><path d="M91.667,399.167c4.75,-10.417 4.166,-13.125 -2.917,-18.417c-4.246,-3.308 -9.704,-4.646 -15,-3.667c-6.667,2.584 -9.208,25.417 -3.458,31.167c6.666,6.625 16.083,2.625 21.375,-9.083Z" style="fill:#262626;fill-rule:nonzero;"/><path d="M713.25,135.25c-12.25,0 -14.458,18.583 -3.75,31.583c6.333,7.667 10.583,7.375 17.792,-1.291c8.25,-9.917 -1.25,-30.292 -14.042,-30.292Z" style="fill:#262626;fill-rule:nonzero;"/><path d="M744.75,393.542c-7.708,1.041 -10.958,5.083 -12.083,15c-0.875,7.583 1.125,15.208 4.5,17.25c9.083,5.625 18.125,-4.167 18.125,-19.959c-0,-11.666 -1.667,-13.583 -10.542,-12.291Z" style="fill:#262626;fill-rule:nonzero;"/><path d="M106.75,432.167c-6.333,9.708 -6.75,13.375 -2.083,19c11.833,14.291 30.083,2.708 27.291,-17.25c-2.166,-15.125 -15.791,-16.084 -25.208,-1.75Z" style="fill:#262626;fill-rule:nonzero;"/><path d="M768.458,534c-11.25,-2.125 -19.583,15.208 -13.125,27.208c4.167,7.709 6.709,8.542 14.459,4.417c11.625,-6.25 10.625,-29.333 -1.334,-31.625Z" style="fill:#262626;fill-rule:nonzero;"/></g><g id="std-text"><path id="text-save" d="M270.167,296.708l10.958,-23.375l3.292,14.709c2.079,8.654 6.391,16.612 12.5,23.083c12.5,11.25 31.375,4.542 44,-15.5c10.166,-16.167 16.416,-19.333 16.416,-8.333c0,3.833 5.292,10.375 11.709,14.583c10.875,7.125 12.5,7.083 23.583,0c8.396,-6.404 15.196,-14.658 19.875,-24.125c4.167,-8.875 8.917,-16.125 10.375,-16.125c1.458,-0 6.208,6.375 10.583,14.042c10.125,17.791 27.917,18.708 43.084,2.375c12.208,-13.167 30.875,-65.625 30.875,-86.75c-0,-11.625 1.875,-13.917 11.333,-13.917c8.792,-0 12,3.125 14.5,14.375c4.167,18.625 26.958,44.625 42.792,48.542c17.291,4.166 37.25,-5.167 48.333,-23.084c13.708,-22.125 11.542,-28.416 -5,-14.541c-14.333,12.083 -33.833,15.5 -45.583,8.083c-3.375,-2.167 -9,-12.125 -12.5,-22.167c-6.125,-17.583 -5.875,-18.791 6.75,-32.291c17.083,-18.5 23.625,-31.292 23.625,-48.5c-0,-14.292 -10.25,-28.709 -20.375,-28.709c-18.042,0 -40.459,32.375 -40.459,58.334c0,14.333 -9.583,19.125 -23.333,11.75c-13.75,-7.375 -23.5,1.5 -23.542,22.791c0,27.875 -19.5,89.542 -28.291,89.542c-3.625,0 -11.167,-29.75 -16.292,-64c-3.042,-20.833 -13.917,-29.708 -23.333,-19.25c-2.959,3.292 -7.709,18.75 -10.375,34.292c-6.625,37.5 -18.584,66.208 -25,59.75c-2.709,-2.709 -6.334,-19.417 -8.084,-37.125c-2.833,-28.667 -4.166,-32.375 -13.708,-33.667c-5.792,-0.833 -10.5,-4.542 -10.5,-8.333c-0,-3.792 -4.458,-6.667 -9.875,-6.667c-10.458,-0 -26.333,15.25 -60.167,57.958c-11.666,14.667 -22.416,26.375 -23.958,26.375c-7.208,0 -14.542,-48.291 -11.583,-76.041c2.75,-25.584 1.916,-31.084 -6.334,-41.125c-8.25,-10.042 -11,-10.667 -18,-6.25c-7,4.416 -8.333,10.833 -7.208,43.416c1.154,33.288 -4.429,66.467 -16.417,97.542c-5.208,13.792 13.667,4.167 20.834,-10.333c4.166,-8.917 9.375,-15.209 11.375,-13.959c6.958,4.167 9.625,42.625 4.166,62.5c-2.958,10.875 -4.166,23.875 -2.416,28.917c1.725,5.125 6.354,8.721 11.75,9.125c10.708,0 18.541,-13.208 18.625,-31.292c0.041,-7.291 5,-23.75 11,-36.625Zm73.125,-91.25c4.5,0 -4.459,36.042 -15.167,61.417c-9.625,22.75 -17.5,27.167 -17.5,9.75c-0,-24.542 21.375,-71.167 32.667,-71.167Z" style="fill:#262626;fill-rule:nonzero;"/><path id="text-the" d="M620.167,402.792c-28.167,39.583 -51.625,60.041 -68.667,60.041l-10.667,0l8.959,-23.416c11.791,-31.084 11.625,-58.084 -0.459,-70.167c-11.333,-11.292 -13.625,-11.458 -27.541,-1.708c-22.209,15.541 -30.292,57.041 -17.292,88.166c5.792,13.875 5.792,16.667 0,21.584c-8,6.666 -6.833,8 -18.542,-21.417c-8.333,-20.833 -11.083,-23.583 -24.666,-25c-9.667,-0.958 -14.5,-3.542 -13.042,-7c18.083,-42.667 19.708,-76.167 4.458,-93c-19.375,-21.375 -50.166,2.458 -64.166,50.375c-4.5,15.25 -12.084,38.333 -16.667,51.208c-4.583,12.875 -13.292,37.167 -19,54.167c-10.5,30.958 -21.292,50.25 -25.667,45.833c-1.291,-1.333 -3.666,-14.875 -5.25,-30.083c-2.75,-27 -2.458,-28 11.875,-38.5c15.584,-11.417 15.375,-19.625 -0.458,-19.625c-8.708,0 -9.333,-1.958 -6.583,-20.375c2.25,-14.75 1.25,-21.833 -3.5,-25.792c-9.417,-7.791 -16.167,1.917 -21.75,31.417c-3.5,18.667 -8.334,27.5 -21.084,38.667c-25.708,22.541 -21.666,32.791 8.084,20.541c7,-2.875 8.333,-0.625 8.333,15.542c0,22.75 6.958,43.167 17.458,51.167c3.705,2.987 8.105,4.995 12.792,5.833c9.375,0 25.875,-14.417 33.667,-29.458c7.791,-15.042 7.833,-14.625 12.25,-4.667c10.833,24.25 26.708,15.25 54.583,-30.917c26.083,-43.125 31.542,-47.541 37.5,-30.208c3.121,8.529 6.725,16.875 10.792,25c8,15.417 28.916,18.083 42.541,5.458c7.75,-6.362 17.567,-9.654 27.584,-9.25c35.375,0 81.166,-39.416 92.333,-79.75c6.75,-25.541 -1.833,-27.708 -18.208,-4.666Zm-213.084,79.666l-12.125,20.209l0,-19.334c0,-16 1.709,-19.791 10.25,-22c5.709,-1.5 11.167,-1.916 12.209,-0.875c1.041,1.042 -3.667,10.875 -10.334,22Zm25,-81.916c-3.65,8.662 -8.67,16.683 -14.875,23.75c-18.5,19.708 -20.208,12.166 -7.208,-31.625c5.875,-19.709 18.292,-42.125 23.375,-42.125c5.083,-0 4.417,34.708 -1.375,50l0.083,-0Zm101.959,7.791c-1.334,12.5 -4.959,25 -8.334,28.084c-4.541,4.166 -5.291,0.625 -3.375,-17.209c1.292,-12.5 4.959,-25 8.334,-28.083c4.541,-4.333 5.25,-0.667 3.375,17.208Z" style="fill:#262626;fill-rule:nonzero;"/><path id="text-date" d="M671.292,614.333c-15.25,12.88 -34.246,20.505 -54.167,21.75c-10.167,0 -10.208,0 -3.042,-27.666c6,-23.042 6.167,-28.875 0.959,-35.084c-9.167,-11.083 -21.834,-9.125 -33,5.125c-7.875,10 -9.709,18.209 -8.917,39.75c0.708,20.834 -1.083,29.167 -7.667,36.625c-4.708,5.25 -10.375,7.75 -12.5,5.542c-6.708,-6.708 -9.375,-48.667 -4.875,-76.583c4.5,-27.917 0.959,-41.334 -10.916,-41.334c-7.75,0 -16,18.209 -16,35.334c-0,8.333 -4.167,13 -16.375,18.166c-19.125,8 -22.209,21.375 -4.917,21.375c11.333,0 11.417,0.25 5.167,18c-4.979,13.213 -10.754,26.109 -17.292,38.625l-10.958,20.625l-2.375,-31.416c-2.584,-33.584 -10.625,-45.375 -31.292,-45.834c-13.917,0 -36.583,19.875 -51.875,45.834l-12.75,21.708l-3.333,-23.333c-2.625,-18.5 -6.792,-26.584 -19.875,-38.584c-18.209,-16.666 -33.084,-19.083 -53.875,-8.333c-12.5,6.375 -13.459,6.25 -15.792,-2.792c-1.583,-6.166 -5.542,-9.041 -11.042,-7.958c-6.666,1.25 -8.75,6.583 -9.625,25c-0.583,12.833 -3.333,41.292 -6.083,63.25c-5.333,42.125 -1.125,77.583 10.083,84.5c7.584,4.667 22.834,-3.292 22.834,-11.958c-0,-5.292 2.708,-5.667 13.916,-1.792c19.875,6.958 45.834,-6.667 59.667,-31.083c5.875,-10.417 10.5,-15.209 10.583,-10.667c0,8.708 13.375,17.667 26.292,17.667c4.5,-0 17.125,-9.334 28.042,-20.834l19.916,-20.833l7.459,11.417c14.166,21.625 33.333,10.916 53.958,-30.125l10.25,-20.5l8.917,14.666c12.208,20.042 30.833,19.917 50.708,-0.375c12.5,-12.5 17.667,-14.875 33.083,-13.708c31.613,1.379 60.525,-17.721 71.667,-47.333c4.333,-10.917 -0.792,-9.959 -14.958,3.166Zm-347.167,126.417c-6.192,4.262 -13.354,6.9 -20.833,7.667c-8.75,-0 -10.417,-3.459 -12.875,-27.459c-3,-28.625 -0,-45.25 12.5,-69.375c8.791,-17.083 19.083,-22 31.75,-15.208c27.375,14.667 20.541,82.583 -10.542,104.375Zm95.833,-45c-19.666,26.042 -27,18.375 -11.458,-11.917c8,-15.5 37.917,-48.833 37.917,-42.208c-0.042,7.292 -16.417,40.708 -26.5,54.208l0.041,-0.083Z" style="fill:#262626;fill-rule:nonzero;"/></g></svg>